<!-- Generated by IcoMoon.io -->
<svg version="1.1" xmlns="http://www.w3.org/2000/svg" width="24" height="24" viewBox="0 0 768 768">
<title>shopping-cart</title>
<g id="icomoon-ignore">
</g>
<path fill="#000" d="M153.6 76.8h614.4l-115.2 345.6h-499.2c-21.208 0-38.4 17.192-38.4 38.4s17.192 38.4 38.4 38.4v0h499.2v76.8h-499.2c-63.623 0-115.2-51.577-115.2-115.2s51.577-115.2 115.2-115.2v0h12.672l-51.072-153.6-38.4-115.2h-76.8v-76.8h115.2c21.208 0 38.4 17.192 38.4 38.4v0 38.4zM192 768c-42.416 0-76.8-34.385-76.8-76.8s34.385-76.8 76.8-76.8v0c42.415 0 76.8 34.384 76.8 76.8s-34.384 76.8-76.8 76.8v0zM576 768c-42.415 0-76.8-34.385-76.8-76.8s34.385-76.8 76.8-76.8v0c42.415 0 76.8 34.384 76.8 76.8s-34.385 76.8-76.8 76.8v0z"></path>
</svg>
